<svg width="112" height="116" viewBox="0 0 112 116" fill="none" xmlns="http://www.w3.org/2000/svg">
<ellipse cx="55.8162" cy="57.9859" rx="55.4451" ry="57.267" fill="#FFC800" fill-opacity="0.25"/>
<ellipse cx="55.8176" cy="57.9858" rx="46.454" ry="47.9805" fill="#FFC800"/>
<path d="M81.7982 72.8878C83.6098 72.9542 83.4528 72.9818 83.4609 74.6806C83.4641 75.5097 83.4706 76.3405 83.4576 77.1696C83.4479 77.845 83.2537 78.0328 82.5802 78.0344C81.0032 78.0409 79.4263 78.036 77.9951 78.036C77.4867 79.0514 77.0237 79.9778 76.5558 80.9154C76.6028 80.9186 76.7695 80.9446 76.9363 80.9446C78.7771 80.9478 80.6195 80.9446 82.4603 80.9478C83.2698 80.9494 83.456 81.1357 83.4593 81.9535C83.4641 82.8846 83.469 83.8158 83.4576 84.747C83.4479 85.4174 83.2504 85.6004 82.5753 85.6215C82.4344 85.6264 82.292 85.6231 82.1511 85.6231C64.6059 85.6231 47.0606 85.6231 29.5154 85.6231C29.3341 85.6231 29.1511 85.6215 28.9698 85.6215C28.442 85.6183 28.1943 85.3381 28.1927 84.8247C28.191 83.8336 28.183 82.8409 28.1943 81.8498C28.2008 81.1599 28.4145 80.9543 29.1155 80.951C30.9158 80.9462 32.7178 80.9494 34.5181 80.9494C34.74 80.9494 34.9601 80.9494 35.1204 80.9494C34.6477 80.0166 34.1749 79.0806 33.6471 78.0409C32.2774 78.0409 30.7426 78.0425 29.2078 78.0409C28.3449 78.0393 28.1943 77.8871 28.191 77.0077C28.1878 76.036 28.1894 75.0644 28.191 74.0927C28.1927 73.066 28.3206 72.9381 29.3341 72.93C29.4749 72.9283 29.6158 72.93 29.8538 72.93C29.8538 72.6757 29.8538 72.4425 29.8538 72.2093C29.8538 65.6911 29.8538 59.1728 29.8538 52.6562C29.8538 51.7153 30.0124 51.5534 30.9353 51.5534C42.1469 51.5534 53.357 51.5436 64.5686 51.5566C72.8515 51.5663 79.5834 56.9202 81.3724 64.951C81.646 66.1818 81.7205 67.4676 81.7852 68.7324C81.8516 70.0992 81.7982 71.4741 81.7982 72.8878ZM48.4125 69.2182C59.1449 69.2182 69.7948 69.2182 80.4107 69.2182C80.4107 68.4133 80.4107 67.6554 80.4107 66.8571C80.095 66.8571 79.8537 66.8571 79.6125 66.8571C75.6459 66.8571 71.681 66.849 67.7144 66.8603C66.4548 66.8635 65.4963 66.3243 64.7678 65.338C64.1623 64.5186 63.8385 63.5874 63.8288 62.5688C63.8109 60.8279 63.8174 59.087 63.8142 57.3477C63.8142 57.1323 63.8142 56.9169 63.8142 56.6821C52.8972 56.6821 42.0627 56.6821 31.217 56.6821C31.217 60.8862 31.217 65.0579 31.217 69.2312C33.4868 69.2312 35.7049 69.2312 37.9942 69.2312C37.9942 68.9834 37.9942 68.768 37.9942 68.551C37.9942 65.6765 37.9925 62.802 37.9958 59.9291C37.9974 59.2182 38.2014 58.9898 38.8749 58.9882C41.7681 58.9817 44.6629 58.9801 47.5561 58.9882C48.202 58.9898 48.4093 59.2182 48.4109 59.887C48.4174 61.5664 48.4125 63.2473 48.4125 64.9267C48.4125 66.3421 48.4125 67.7558 48.4125 69.2182ZM80.1419 65.5664C80.1419 65.4206 80.1484 65.3607 80.1403 65.304C80.1241 65.1842 80.1095 65.0627 80.0804 64.9445C79.313 61.7915 77.7393 59.1097 75.3318 56.9331C75.1359 56.7566 74.7959 56.6643 74.5223 56.6627C71.5903 56.6433 68.6566 56.6497 65.7246 56.653C65.5303 56.653 65.3361 56.674 65.0916 56.6886C65.0916 57.3995 65.0835 58.0635 65.0932 58.7275C65.1142 60.1623 65.0576 61.6052 65.1936 63.0303C65.3539 64.7048 66.4224 65.5664 68.0851 65.5664C71.8671 65.568 75.6492 65.5664 79.4328 65.5664C79.6497 65.5664 79.8699 65.5664 80.1419 65.5664ZM47.0574 72.904C47.0574 68.6692 47.0574 64.4959 47.0574 60.3307C44.454 60.3307 41.8976 60.3307 39.3493 60.3307C39.3493 64.5461 39.3493 68.7194 39.3493 72.904C41.9348 72.904 44.4767 72.904 47.0574 72.904ZM80.4625 70.5834C69.7835 70.5834 59.1304 70.5834 48.4498 70.5834C48.4498 71.3672 48.4498 72.1219 48.4498 72.8878C59.1385 72.8878 69.7899 72.8878 80.4625 72.8878C80.4625 72.1073 80.4625 71.364 80.4625 70.5834ZM68.0155 78.0587C59.9302 78.0587 51.7185 78.0587 43.6413 78.0587C43.1362 79.0644 42.6634 80.002 42.2149 80.896C51.2652 80.896 60.4078 80.896 69.4257 80.896C68.9691 79.9794 68.5093 79.0531 68.0155 78.0587ZM37.9699 70.5866C35.6676 70.5866 33.4383 70.5866 31.2105 70.5866C31.2105 71.3834 31.2105 72.1381 31.2105 72.8878C33.4868 72.8878 35.7162 72.8878 37.9699 72.8878C37.9699 72.1105 37.9699 71.3704 37.9699 70.5866ZM42.0692 78.0846C39.7589 78.0846 37.4907 78.0846 35.2143 78.0846C35.5657 79.8709 37.0357 81.011 38.8506 80.9429C40.4518 80.8846 41.9057 79.602 42.0692 78.0846ZM69.5908 78.0668C69.6766 79.5308 71.1742 80.8749 72.777 80.9429C74.6178 81.0207 76.1883 79.7931 76.423 78.0668C74.1435 78.0668 71.8671 78.0668 69.5908 78.0668Z" fill="white"/>
<path d="M65.3899 43.3672C65.5777 43.121 65.7251 42.9364 65.8643 42.7469C67.8006 40.1282 69.7354 37.5096 71.6733 34.8909C72.2335 34.133 72.6124 34.1314 73.1531 34.8877C76.4818 39.5452 79.8105 44.2012 83.1278 48.8668C83.2816 49.0838 83.4176 49.3753 83.4063 49.6264C83.3998 49.8013 83.1295 50.1057 82.9773 50.1057C82.7199 50.1041 82.3734 49.9778 82.2228 49.7835C81.4716 48.8053 80.79 47.7737 80.0388 46.7955C79.838 46.5332 79.5077 46.3065 79.1936 46.2077C78.0377 45.8482 76.859 45.5599 75.695 45.2247C75.3841 45.1356 75.1769 45.1631 74.9729 45.4417C74.675 45.8498 74.3269 46.219 74.0047 46.6093C73.7246 46.9462 73.383 47.1146 73.009 46.8182C72.5994 46.4927 72.7208 46.117 73.022 45.764C73.4818 45.2247 73.9497 44.6919 74.3836 44.1332C74.6798 43.7526 75.0247 43.6943 75.457 43.8157C76.4251 44.0894 77.3965 44.3502 78.5412 44.6627C77.5746 43.3072 76.7036 42.0878 75.8002 40.8214C75.07 41.155 74.3609 41.4821 73.6485 41.8028C73.0123 42.0878 72.7613 41.9874 72.4602 41.3412C72.3161 41.0303 72.1752 40.7193 72.0004 40.3355C71.39 40.6351 70.8023 40.925 70.213 41.2149C70.0317 41.304 69.8568 41.4157 69.6658 41.4756C68.0435 41.9858 67.009 43.168 66.1622 44.5526C66.0634 44.7129 66.0667 44.9526 66.0732 45.155C66.0764 45.2878 66.1703 45.4174 66.2205 45.5502C66.3694 45.947 66.3921 46.3453 65.9404 46.53C65.4757 46.7194 65.1827 46.4684 65.0111 46.0231C64.3408 44.2886 63.6625 42.559 62.9841 40.8295C62.7429 40.2124 62.4951 39.5987 62.2539 38.993C61.8087 39.4205 61.3716 39.8108 60.9781 40.24C60.8858 40.3404 60.881 40.6108 60.9474 40.7469C61.1497 41.1631 61.4056 41.555 61.6452 41.9534C61.8751 42.3356 61.8524 42.6789 61.5011 42.9801C60.8243 43.5599 60.1508 44.1413 59.4773 44.7226C59.1373 45.0158 58.7714 45.0838 58.4703 44.7097C58.1691 44.3372 58.3262 43.9955 58.6613 43.7105C59.215 43.2408 59.7639 42.7647 60.3273 42.2805C60.0634 41.8287 59.8432 41.3947 59.5712 40.9979C59.2053 40.4667 59.2863 40.0456 59.7444 39.6132C60.2884 39.0999 60.7887 38.5412 61.3068 38.0003C61.7358 37.5533 61.7342 37.5533 61.3975 36.9168C60.7126 37.1679 60.0181 37.4221 59.3235 37.678C58.3974 38.0181 58.365 38.0084 57.7903 37.1889C57.7336 37.1079 57.664 37.0351 57.5733 36.9249C55.7536 37.8659 53.9403 38.797 52.1367 39.7444C51.9473 39.8448 51.8 40.0311 51.6445 40.1898C48.5393 43.3218 45.434 46.4571 42.3303 49.5907C42.2024 49.7203 42.0762 49.8531 41.9418 49.9745C41.6633 50.2288 41.3525 50.2644 41.0724 50.0069C40.7696 49.7316 40.7745 49.3915 41.0319 49.0871C41.2667 48.8102 41.5322 48.5575 41.7928 48.3033C43.0411 47.0903 44.291 45.8822 45.5781 44.6352C44.6698 43.406 43.836 42.2756 42.9569 41.0853C42.6477 41.4902 42.387 41.8416 42.1166 42.1849C41.7265 42.6805 41.3751 42.7615 40.9574 42.3226C40.4766 41.819 40.0038 41.7347 39.4048 42.0424C39.1927 42.1526 38.945 42.193 38.7151 42.2708C38.2974 42.4133 37.9752 42.3113 37.7129 41.9436C37.292 41.3542 36.85 40.7825 36.3416 40.1039C36.2412 40.3517 36.1344 40.5023 36.1263 40.6562C36.0907 41.4044 36.0664 42.1542 36.081 42.9008C36.0842 43.0416 36.2542 43.2473 36.395 43.304C36.7868 43.4627 37.2013 43.5647 37.6093 43.6781C38.061 43.8044 38.2958 44.0668 38.2359 44.5607C38.1355 45.4044 38.0594 46.2498 37.9542 47.0935C37.9023 47.5033 37.6676 47.7915 37.2256 47.7332C36.7982 47.6765 36.6152 47.3688 36.6606 46.9413C36.7334 46.2595 36.8144 45.5777 36.8986 44.8344C36.4647 44.7016 36.047 44.572 35.6293 44.4441C34.8262 44.1963 34.7598 44.1024 34.7793 43.2344C34.7841 43.0157 34.7793 42.7971 34.7793 42.4165C34.5769 42.6659 34.4538 42.8052 34.347 42.9542C32.7685 45.1583 31.1932 47.3624 29.6162 49.5664C29.5223 49.6976 29.4333 49.8369 29.3216 49.9519C29.0577 50.2256 28.7031 50.2887 28.4684 50.0102C28.3113 49.8239 28.3113 49.4758 28.3129 49.2004C28.3146 49.066 28.4797 48.9332 28.5736 48.8021C31.8651 44.1931 35.1581 39.5857 38.4512 34.9767C39.0697 34.1103 39.408 34.1055 40.0378 34.9573C42.0341 37.6569 44.0287 40.3582 46.0249 43.0595C46.1447 43.2214 46.271 43.3769 46.5689 43.7591C46.7033 43.5113 46.7713 43.2765 46.9235 43.1242C50.9613 39.0335 55.0072 34.9524 59.0515 30.8698C59.1082 30.8115 59.1632 30.7532 59.2215 30.6965C59.7801 30.1588 60.2269 30.2382 60.5119 30.9589C61.3084 32.9686 62.0888 34.9848 62.874 36.9978C63.6171 38.8991 64.3586 40.7987 65.1018 42.6999C65.1746 42.8943 65.2669 43.087 65.3899 43.3672Z" fill="white"/>
<path d="M56.0677 66.637C54.8551 66.637 53.6424 66.6419 52.4314 66.6354C51.7028 66.6322 51.5102 66.4589 51.5085 65.756C51.5004 63.594 51.5004 61.4304 51.5085 59.2685C51.5102 58.5721 51.7223 58.3664 52.4184 58.3648C54.8842 58.3599 57.3484 58.3599 59.8142 58.3648C60.4812 58.3664 60.6949 58.5753 60.6965 59.2263C60.7014 61.4094 60.7014 63.5924 60.6965 65.7738C60.6949 66.4573 60.5185 66.6306 59.8271 66.6338C58.574 66.6419 57.3209 66.6354 56.0677 66.637Z" fill="white"/>
<path d="M74.8854 63.5667C74.7074 63.761 74.5811 64.0218 74.3981 64.0704C74.186 64.1271 73.859 64.0736 73.6971 63.9343C73.179 63.4889 72.7127 62.982 72.2287 62.4961C71.573 61.8401 70.9189 61.1825 70.2616 60.5282C69.9345 60.2026 69.7888 59.8382 70.1709 59.4819C70.5255 59.1515 70.8703 59.3053 71.1763 59.6115C72.2869 60.7258 73.4041 61.8336 74.5066 62.9545C74.6507 63.1002 74.73 63.3124 74.8854 63.5667Z" fill="white"/>
<path d="M76.1196 60.8053C75.9933 60.9543 75.8767 61.2086 75.6889 61.2831C75.5028 61.356 75.166 61.3333 75.03 61.207C74.2885 60.5203 73.5632 59.8109 72.8945 59.0546C72.7601 58.904 72.7893 58.4181 72.9318 58.2659C73.0775 58.1104 73.5761 58.044 73.7154 58.1687C74.499 58.8667 75.2227 59.6312 75.9577 60.3826C76.0354 60.462 76.0451 60.6045 76.1196 60.8053Z" fill="white"/>
</svg>
