<svg width="57" height="56" viewBox="0 0 57 56" fill="none" xmlns="http://www.w3.org/2000/svg">
<path d="M54.7736 25.4168C49.07 23.0683 43.3736 20.7003 37.6743 18.3398C36.16 17.7131 35.1029 18.4651 35.1029 20.1646C35.1015 27.6804 35.1029 35.1961 35.1029 42.7134V43.2535H38.4379V42.691C38.4379 41.087 38.4494 39.4829 38.4308 37.8789C38.4264 37.4984 38.5257 37.294 38.8751 37.115C44.1228 34.4292 49.3576 31.718 54.6053 29.0322C55.2496 28.7025 55.8133 28.3309 56.1312 27.6416V26.7463C55.8622 26.1017 55.4164 25.681 54.7736 25.4168ZM39.6647 32.5581V23.4726L49.5532 26.9194L39.6647 32.5581Z" fill="white"/>
<path d="M21.3443 10.7288C21.317 12.9088 20.7734 14.9336 19.702 16.7988C17.1176 21.296 14.5261 25.7888 11.9318 30.2786C11.4126 31.1769 10.6561 31.165 10.1384 30.2548C7.60155 25.7933 5.02299 21.3572 2.55084 16.857C0.362012 12.8715 0.182246 8.80101 2.63713 4.84986C4.93095 1.15835 9.27841 -0.59639 13.3512 0.382443C17.5074 1.38217 20.6022 4.8424 21.2019 9.17105C21.2738 9.68732 21.2983 10.2096 21.3443 10.7288ZM10.9768 16.3914C13.8445 16.4466 16.2332 14.0384 16.3065 11.0213C16.377 8.0818 14.0357 5.54071 11.2012 5.48103C8.23145 5.41836 5.81108 7.80874 5.76794 10.8437C5.72479 13.8638 8.04449 16.3347 10.9768 16.3914Z" fill="white"/>
<path d="M13.9245 33.5701C14.5846 32.4227 15.1829 31.3663 15.807 30.3263C15.8789 30.2055 16.0961 30.1189 16.2457 30.1189C18.4201 30.1085 20.596 30.0682 22.769 30.1294C26.1587 30.2249 28.7876 33.1404 28.7487 36.6767C28.7114 40.1219 26.0077 42.9599 22.6482 42.9838C17.6522 43.0196 12.6561 42.9897 7.65861 42.9972C6.00045 43.0002 4.69894 44.0252 4.35667 45.5666C3.89072 47.6645 5.36192 49.6474 7.43714 49.6788C9.19741 49.7056 10.9591 49.6848 12.7208 49.6848C18.0232 49.6848 23.3241 49.6848 28.6265 49.6848C28.8365 49.6848 29.0479 49.6848 29.2118 49.6848C29.2708 50.8546 29.3269 51.9617 29.3858 53.1196C29.2909 53.124 29.1212 53.1419 28.9515 53.1419C21.817 53.1434 14.681 53.1479 7.54643 53.1404C4.06329 53.1375 1.30928 50.4979 0.948306 46.8483C0.62329 43.5582 2.93436 40.3965 6.20466 39.6922C6.72814 39.5803 7.27463 39.549 7.81105 39.5475C12.6273 39.537 17.4451 39.5326 22.2614 39.5475C23.3644 39.5505 24.2834 39.2058 24.9133 38.2464C25.5403 37.2929 25.6122 36.2544 25.1132 35.2234C24.6041 34.1715 23.7455 33.5895 22.6079 33.5791C19.9488 33.5537 17.2883 33.5687 14.6278 33.5687C14.4308 33.5701 14.2337 33.5701 13.9245 33.5701Z" fill="white"/>
<path d="M32.5807 50.9976C32.5922 48.5744 34.469 46.6452 36.8088 46.6527C39.1357 46.6601 41.0269 48.6341 41.0111 51.0364C40.9952 53.4416 39.0883 55.3992 36.77 55.3917C34.4489 55.3842 32.5692 53.4132 32.5807 50.9976Z" fill="white"/>
<path d="M11.0285 8.9355C12.1114 8.93103 12.9901 9.83977 12.9786 10.9529C12.9671 12.0363 12.0899 12.942 11.0458 12.948C9.9758 12.954 9.0971 12.0333 9.10429 10.9156C9.11148 9.81441 9.96142 8.93998 11.0285 8.9355Z" fill="white"/>
</svg>
