<svg width="112" height="116" viewBox="0 0 112 116" fill="none" xmlns="http://www.w3.org/2000/svg">
<ellipse cx="56.2556" cy="57.9859" rx="55.4451" ry="57.267" fill="#FFC800" fill-opacity="0.25"/>
<ellipse cx="56.2552" cy="57.9858" rx="46.454" ry="47.9805" fill="#FFC800"/>
<path d="M82.7736 50.4168C77.07 48.0683 71.3736 45.7003 65.6743 43.3398C64.16 42.7131 63.1029 43.4651 63.1029 45.1646C63.1015 52.6804 63.1029 60.1961 63.1029 67.7134V68.2535H66.4379V67.691C66.4379 66.087 66.4494 64.4829 66.4308 62.8789C66.4264 62.4984 66.5257 62.294 66.8751 62.115C72.1228 59.4292 77.3576 56.718 82.6053 54.0322C83.2496 53.7025 83.8133 53.3309 84.1312 52.6416V51.7463C83.8622 51.1017 83.4164 50.681 82.7736 50.4168ZM67.6647 57.5581V48.4726L77.5532 51.9194L67.6647 57.5581Z" fill="white"/>
<path d="M49.3443 35.7288C49.317 37.9088 48.7734 39.9336 47.702 41.7988C45.1176 46.296 42.5261 50.7888 39.9318 55.2786C39.4126 56.1769 38.6561 56.165 38.1384 55.2548C35.6016 50.7933 33.023 46.3572 30.5508 41.857C28.362 37.8715 28.1822 33.801 30.6371 29.8499C32.9309 26.1583 37.2784 24.4036 41.3512 25.3824C45.5074 26.3822 48.6022 29.8424 49.2019 34.171C49.2738 34.6873 49.2983 35.2096 49.3443 35.7288ZM38.9768 41.3914C41.8445 41.4466 44.2332 39.0384 44.3065 36.0213C44.377 33.0818 42.0357 30.5407 39.2012 30.481C36.2315 30.4184 33.8111 32.8087 33.7679 35.8437C33.7248 38.8638 36.0445 41.3347 38.9768 41.3914Z" fill="white"/>
<path d="M41.9245 58.5701C42.5846 57.4227 43.1829 56.3663 43.807 55.3263C43.8789 55.2055 44.0961 55.1189 44.2457 55.1189C46.4201 55.1085 48.596 55.0682 50.769 55.1294C54.1587 55.2249 56.7876 58.1404 56.7487 61.6767C56.7114 65.1219 54.0077 67.9599 50.6482 67.9838C45.6522 68.0196 40.6561 67.9897 35.6586 67.9972C34.0004 68.0002 32.6989 69.0252 32.3567 70.5666C31.8907 72.6645 33.3619 74.6474 35.4371 74.6788C37.1974 74.7056 38.9591 74.6848 40.7208 74.6848C46.0232 74.6848 51.3241 74.6848 56.6265 74.6848C56.8365 74.6848 57.0479 74.6848 57.2118 74.6848C57.2708 75.8546 57.3269 76.9617 57.3858 78.1196C57.2909 78.124 57.1212 78.1419 56.9515 78.1419C49.817 78.1434 42.681 78.1479 35.5464 78.1404C32.0633 78.1375 29.3093 75.4979 28.9483 71.8483C28.6233 68.5582 30.9344 65.3965 34.2047 64.6922C34.7281 64.5803 35.2746 64.549 35.8111 64.5475C40.6273 64.537 45.4451 64.5326 50.2614 64.5475C51.3644 64.5505 52.2834 64.2058 52.9133 63.2464C53.5403 62.2929 53.6122 61.2544 53.1132 60.2234C52.6041 59.1715 51.7455 58.5895 50.6079 58.5791C47.9488 58.5537 45.2883 58.5687 42.6278 58.5687C42.4308 58.5701 42.2337 58.5701 41.9245 58.5701Z" fill="white"/>
<path d="M60.5807 75.9976C60.5922 73.5744 62.469 71.6452 64.8088 71.6527C67.1357 71.6601 69.0269 73.6341 69.0111 76.0364C68.9952 78.4416 67.0883 80.3992 64.77 80.3917C62.4489 80.3842 60.5692 78.4132 60.5807 75.9976Z" fill="white"/>
<path d="M39.0285 33.9355C40.1114 33.931 40.9901 34.8398 40.9786 35.9529C40.9671 37.0363 40.0899 37.942 39.0458 37.948C37.9758 37.954 37.0971 37.0333 37.1043 35.9156C37.1115 34.8144 37.9614 33.94 39.0285 33.9355Z" fill="white"/>
</svg>
