<svg width="112" height="116" viewBox="0 0 112 116" fill="none" xmlns="http://www.w3.org/2000/svg">
<ellipse cx="55.8216" cy="57.9859" rx="55.4451" ry="57.267" fill="#FFC800" fill-opacity="0.25"/>
<ellipse cx="55.8213" cy="57.9858" rx="46.454" ry="47.9805" fill="#FFC800"/>
<path d="M27.7932 48.551C27.7932 47.5794 27.7932 46.6078 27.7932 45.6361C27.9734 44.5414 28.0674 43.4229 28.3492 42.3552C30.5623 33.9796 35.8708 28.682 44.2701 26.5249C45.3055 26.2594 46.384 26.1622 47.442 25.9873C48.4137 25.9873 49.3853 25.9873 50.357 25.9873C50.4941 26.0186 50.6312 26.0672 50.7705 26.0791C53.2687 26.2864 55.6697 26.8931 57.9045 28.0224C65.0753 31.6487 69.1195 37.4581 69.9162 45.4774C69.9681 46.001 70.1376 46.2213 70.645 46.3951C76.6552 48.4496 80.5752 52.5477 82.3987 58.6216C82.7312 59.7304 82.8521 60.9039 83.0702 62.0472C83.0702 62.9465 83.0702 63.8469 83.0702 64.7462C83.0378 64.8844 82.9903 65.0215 82.9774 65.1618C82.7431 67.6082 82.0273 69.9056 80.8246 72.0443C80.64 72.3725 80.6206 72.6543 80.7188 73.003C81.4303 75.5228 82.1277 78.0469 82.8262 80.571C82.8759 80.7502 82.9083 80.9349 82.9579 81.1583C82.823 81.1303 82.7539 81.1206 82.6869 81.1022C80.111 80.3907 77.5318 79.6901 74.9623 78.9549C74.4959 78.8221 74.144 78.8987 73.7046 79.0877C72.3087 79.6879 70.8965 80.2633 69.4499 80.7222C68.5203 81.0169 67.5206 81.0914 66.5522 81.2641C65.6529 81.2641 64.7525 81.2641 63.8532 81.2641C63.715 81.2318 63.5789 81.1821 63.4386 81.1691C56.3477 80.489 50.2814 75.552 48.1503 68.6975C48.0283 68.3056 47.8588 68.1664 47.4561 68.1394C44.2518 67.9245 41.2505 67.0242 38.451 65.4425C38.2783 65.3454 38.003 65.3389 37.8022 65.3929C35.8773 65.9068 33.9588 66.4444 32.0382 66.9734C30.6789 67.348 29.3197 67.7205 27.8968 68.1113C27.9529 67.8652 27.9842 67.6946 28.0307 67.5273C28.862 64.5173 29.6857 61.5041 30.5397 58.5007C30.6725 58.0354 30.6498 57.6759 30.4058 57.244C29.4277 55.5156 28.7162 53.6748 28.32 51.7251C28.1062 50.6746 27.9659 49.6091 27.7932 48.551ZM32.524 63.4561C32.6892 63.4172 32.7723 63.401 32.8533 63.3783C34.6022 62.8968 36.3555 62.4294 38.0969 61.923C38.518 61.7999 38.8322 61.8561 39.1971 62.0882C43.2683 64.6771 47.6893 65.5235 52.419 64.6102C62.1873 62.7241 68.597 52.9224 66.3028 43.1746C64.7104 36.4109 60.4589 31.8625 53.7837 29.9527C47.1484 28.0537 41.1781 29.6655 36.2584 34.5183C30.2309 40.4648 29.337 49.5821 33.9124 56.8122C34.1315 57.1587 34.1931 57.4578 34.0765 57.8616C33.5485 59.6893 33.0552 61.5279 32.524 63.4561ZM69.8709 49.5367C69.2296 54.4273 67.2323 58.587 63.797 62.0159C60.3649 65.4436 56.202 67.4333 51.3545 68.0649C51.4064 68.2366 51.4366 68.3531 51.4765 68.4665C53.4047 73.9131 58.915 77.8882 64.7093 78.0188C67.838 78.0901 70.7152 77.289 73.3246 75.5552C73.6323 75.3511 73.9032 75.2885 74.2735 75.404C75.2841 75.7182 76.3108 75.9827 77.3321 76.2623C77.6462 76.3487 77.9658 76.4189 78.3361 76.5096C77.9734 75.1957 77.6624 73.9585 77.2813 72.7439C77.1097 72.1965 77.1799 71.7874 77.4908 71.3005C81.291 65.3508 80.3906 57.746 75.3175 52.8392C73.7748 51.3472 71.9848 50.2471 69.8709 49.5367Z" fill="white"/>
<path d="M45.6266 42.1617C44.5545 42.1617 43.5322 42.1617 42.4601 42.1617C42.3964 41.0562 42.6749 40.0468 43.205 39.1226C44.5632 36.7539 46.6403 35.5447 49.362 35.739C52.033 35.9301 53.9612 37.3574 54.922 39.8697C55.8991 42.4241 55.3593 44.7583 53.4829 46.7405C52.7434 47.5221 51.9229 48.2336 51.1013 48.9321C50.6673 49.3014 50.4524 49.6879 50.5086 50.2698C50.5615 50.8204 50.5194 51.3786 50.5194 51.9702C49.4408 51.9702 48.4077 51.9702 47.2795 51.9702C47.2795 51.4541 47.2752 50.924 47.2806 50.395C47.287 49.6231 47.0851 48.7561 47.3712 48.1051C47.6573 47.4541 48.4314 47.0158 48.996 46.49C49.7334 45.8033 50.4956 45.1437 51.2092 44.4333C52.1777 43.4681 52.4011 42.0095 51.8203 40.7917C51.2406 39.576 49.9472 38.8365 48.6063 38.9542C47.2741 39.0718 46.1383 40.0262 45.781 41.3401C45.7119 41.5949 45.6817 41.8627 45.6266 42.1617Z" fill="white"/>
<path d="M50.4749 58.468C49.4147 58.468 48.3923 58.468 47.3246 58.468C47.3246 57.4078 47.3246 56.3605 47.3246 55.2776C48.361 55.2776 49.3953 55.2776 50.4749 55.2776C50.4749 56.3184 50.4749 57.3667 50.4749 58.468Z" fill="white"/>
</svg>
