<svg width="16" height="14" viewBox="0 0 16 14" fill="none" xmlns="http://www.w3.org/2000/svg">
<path d="M15.6888 1.86628C15.1116 2.12229 14.4912 2.29531 13.8402 2.37311C14.5046 1.97475 15.0151 1.34398 15.2554 0.59233C14.6334 0.961224 13.9446 1.22908 13.2114 1.37339C12.6243 0.747835 11.7878 0.356995 10.862 0.356995C9.08447 0.356995 7.64319 1.7981 7.64319 3.57566C7.64319 3.82792 7.67169 4.07359 7.72659 4.30919C5.05149 4.17494 2.67973 2.89352 1.09224 0.946127C0.81516 1.42151 0.65643 1.97441 0.65643 2.56431C0.65643 3.68102 1.22465 4.66622 2.08834 5.24347C1.56076 5.22667 1.06439 5.08192 0.630465 4.84084C0.630158 4.85429 0.630158 4.86772 0.630158 4.88129C0.630158 6.44084 1.73967 7.74172 3.21211 8.03744C2.94204 8.11102 2.65768 8.15039 2.36413 8.15039C2.15672 8.15039 1.95508 8.13014 1.75852 8.09264C2.16813 9.37132 3.35682 10.302 4.76533 10.3279C3.66374 11.1913 2.27587 11.7058 0.76782 11.7058C0.508012 11.7058 0.251805 11.6905 0 11.6608C1.42444 12.574 3.11635 13.107 4.93405 13.107C10.8545 13.107 14.0921 8.20237 14.0921 3.94888C14.0921 3.80935 14.0889 3.67053 14.0827 3.53246C14.7116 3.07864 15.2573 2.51176 15.6888 1.86628Z" fill="white"/>
</svg>
